HIERARCHY
ROOT Hips
{
	OFFSET 0.00000 0.00000 0.00000
	CHANNELS 6 Xposition Yposition Zposition Zrotation Yrotation Xrotation 
	JOINT LHipJoint
	{
		OFFSET 0 0 0
		CHANNELS 3 Zrotation Yrotation Xrotation
		JOINT LeftHip
		{
			OFFSET 1.37590 -1.78394 0.89329
			CHANNELS 3 Zrotation Yrotation Xrotation
			JOINT LeftKnee
			{
				OFFSET 2.47928 -6.81178 0.00000
				CHANNELS 3 Zrotation Yrotation Xrotation
				JOINT LeftAnkle
				{
					OFFSET 2.63345 -7.23535 0.00000
					CHANNELS 3 Zrotation Yrotation Xrotation
					JOINT LeftToe
					{
						OFFSET 0.23938 -0.65768 2.27012
						CHANNELS 3 Zrotation Yrotation Xrotation
						End Site
						{
							OFFSET 0.00000 -0.00000 1.18363
						}
					}
				}
			}
		}
	}
	JOINT RHipJoint
	{
		OFFSET 0 0 0
		CHANNELS 3 Zrotation Yrotation Xrotation
		JOINT RightHip
		{
			OFFSET -1.33617 -1.78394 0.89329
			CHANNELS 3 Zrotation Yrotation Xrotation
			JOINT RightKnee
			{
				OFFSET -2.56922 -7.05888 0.00000
				CHANNELS 3 Zrotation Yrotation Xrotation
				JOINT RightAnkle
				{
					OFFSET -2.56568 -7.04915 0.00000
					CHANNELS 3 Zrotation Yrotation Xrotation
					JOINT RightToe
					{
						OFFSET -0.27533 -0.75646 2.18105
						CHANNELS 3 Zrotation Yrotation Xrotation
						End Site
						{
							OFFSET -0.00000 -0.00000 1.15233
						}
					}
				}
			}
		}
	}
	JOINT lowerback
	{
		OFFSET 0 0 0
		CHANNELS 3 Zrotation Yrotation Xrotation
		JOINT Chest
		{
			OFFSET 0.06190 2.15152 -0.00935
			CHANNELS 3 Zrotation Yrotation Xrotation
			JOINT Chest2
			{
				OFFSET 0.06334 2.15332 0.00872
				CHANNELS 3 Zrotation Yrotation Xrotation
				JOINT lowerneck
				{
					OFFSET 0 0 0
					CHANNELS 3 Zrotation Yrotation Xrotation
					JOINT Neck
					{
						OFFSET -0.04202 1.66908 0.23524
						CHANNELS 3 Zrotation Yrotation Xrotation
						JOINT Head
						{
							OFFSET 0.07510 1.69357 -0.24440
							CHANNELS 3 Zrotation Yrotation Xrotation
							End Site
							{
								OFFSET 0.02556 1.71719 -0.11000
							}
						}
					}
				}
				JOINT LeftCollar
				{
					OFFSET 0 0 0
					CHANNELS 3 Zrotation Yrotation Xrotation
					JOINT LeftShoulder
					{
						OFFSET 3.67168 1.26306 -0.41342
CHANNELS 3 Zrotation Xrotation Yrotation
						JOINT LeftElbow
						{
OFFSET 0 -4.685100 -0.000000
CHANNELS 3 Zrotation Xrotation Yrotation
							JOINT LeftWrist
							{
OFFSET 0 -3.396260 -0.000000
CHANNELS 3 Zrotation Xrotation Yrotation
								JOINT lhand
								{
									OFFSET 0 0 0
CHANNELS 3 Zrotation Xrotation Yrotation
									JOINT LFingers
									{
OFFSET 0 -0.486080 -0.000000
CHANNELS 3 Zrotation Xrotation Yrotation
										End Site
										{
OFFSET 0 -0.391890 -0.000000
										}
									}
								}
								JOINT LThumb
								{
OFFSET 0 0.000000 0.000000
CHANNELS 3 Zrotation Xrotation Yrotation
									End Site
									{
OFFSET 0 -0.397870 0.397870
									}
								}
							}
						}
					}
				}
				JOINT RightCollar
				{
					OFFSET 0 0 0
					CHANNELS 3 Zrotation Yrotation Xrotation
					JOINT RightShoulder
					{
						OFFSET -3.04136 1.42992 -0.76390
CHANNELS 3 Zrotation Xrotation Yrotation
						JOINT RightElbow
						{
OFFSET 0 -5.555760 -0.000000
CHANNELS 3 Zrotation Xrotation Yrotation
							JOINT RightWrist
							{
OFFSET 0 -3.327740 -0.000000
CHANNELS 3 Zrotation Xrotation Yrotation
								JOINT rhand
								{
									OFFSET 0 0 0
CHANNELS 3 Zrotation Xrotation Yrotation
									JOINT RFingers
									{
OFFSET 0 -0.507630 -0.000000
CHANNELS 3 Zrotation Xrotation Yrotation
										End Site
										{
OFFSET 0 -0.409260 -0.000000
										}
									}
								}
								JOINT RThumb
								{
OFFSET 0 0.000000 0.000000
CHANNELS 3 Zrotation Xrotation Yrotation
									End Site
									{
OFFSET 0 -0.415510 0.415510
									}
								}
							}
						}
					}
				}
			}
		}
	}
}
MOTION
Frames: 11
Frame Time: 0.008333333333333333
4.036412 17.576922 4.876680 -340.454477 -87.121738 343.500907 0.000000 0.000000 0.000000 -22.068734 -5.181895 14.354514 1.447589 7.602955 21.515868 -179.892602 6.931432 -12.111123 1.158963 -6.834319 -19.225552 0.000000 0.000000 0.000000 11.657977 11.974879 -47.420186 -8.245925 -16.294569 53.439550 -0.953765 -12.352781 18.136264 -0.468766 -4.300642 11.937217 -2.939720 -5.085860 0.782094 2.898116 -6.829351 -2.636365 4.788245 -3.336263 -2.458967 -4.956746 -2.503185 -18.949523 6.542718 -3.327652 14.599015 2.580684 -1.231781 7.815987 0.000000 0.000000 0.000000 3.459518 -13.593542 -39.965939 40.681512 -48.466397 18.948477 14.357881 6.325108 -8.953474 0.000000 0.000000 0.000000 -7.125000 0.000000 0.000000 -10.864443 38.996341 -1.629468 0.000000 0.000000 0.000000 -5.300159 20.191540 11.878763 -18.937195 -29.340167 -5.000179 -7.718670 7.395655 11.534388 0.000000 0.000000 0.000000 7.125000 0.000000 0.000000 17.135214 40.992808 1.751424
3.891237 17.563768 4.852837 -344.226661 -86.966815 347.387932 0.000000 0.000000 0.000000 -21.629844 -5.135513 14.091059 1.554673 7.869266 22.317841 -179.374059 7.730694 -11.537961 1.195029 -6.936580 -19.527537 0.000000 0.000000 0.000000 12.350007 11.549255 -45.443132 -7.915979 -16.057069 52.259598 -0.632290 -10.290000 14.892613 -0.227863 -3.072425 8.480424 -2.843135 -5.077538 0.414914 2.957161 -6.810802 -2.714314 4.762743 -3.332163 -2.339546 -4.971866 -2.524965 -18.897189 6.484736 -3.349963 14.697126 2.561851 -1.249350 7.839990 0.000000 0.000000 0.000000 3.321533 -12.843623 -40.292790 40.055983 -48.103065 18.480928 14.335327 6.574838 -9.122262 0.000000 0.000000 0.000000 -7.125000 0.000000 0.000000 -10.916238 39.165253 -1.591611 0.000000 0.000000 0.000000 -5.210659 19.959186 12.034482 -19.130957 -29.581063 -5.095327 -7.963227 7.301212 11.480082 0.000000 0.000000 0.000000 7.125000 0.000000 0.000000 16.911405 40.962546 1.740100
3.745995 17.551014 4.827796 -347.691102 -86.812758 350.960553 0.000000 0.000000 0.000000 -21.127407 -5.100856 13.634832 1.703989 8.215844 23.374135 60.922168 8.688424 -10.722335 1.206515 -6.968634 -19.622429 0.000000 0.000000 0.000000 13.072611 11.131359 -43.535953 -7.587632 -15.804581 51.058663 -0.388216 -8.250134 11.497956 -0.132971 -2.282509 6.290040 -2.737225 -5.052563 0.060657 3.021401 -6.771670 -2.800057 4.739838 -3.317338 -2.237977 -4.998310 -2.551142 -18.852648 6.419093 -3.375071 14.827343 2.542218 -1.269450 7.876184 0.000000 0.000000 0.000000 3.174822 -12.092771 -40.608917 39.369038 -47.688975 17.972080 14.266011 6.870197 -9.306903 0.000000 0.000000 0.000000 -7.125000 0.000000 0.000000 -11.011597 39.346355 -1.555884 0.000000 0.000000 0.000000 -5.114232 19.713711 12.187270 -19.313795 -29.806372 -5.186078 -8.213978 7.226020 11.393004 0.000000 0.000000 0.000000 7.125000 0.000000 0.000000 16.673341 40.900910 1.740033
3.601764 17.538664 4.802585 -351.165659 -86.670909 354.539244 0.000000 0.000000 0.000000 -20.586289 -5.072976 13.068197 1.879844 8.604474 24.570007 179.806177 9.717815 -9.726123 1.202454 -6.957252 -19.588769 0.000000 0.000000 0.000000 13.813122 10.735079 -41.687385 -7.256182 -15.540695 49.831188 -0.197391 -6.397834 8.231647 -0.079121 -1.811105 4.983904 -2.614353 -5.013660 -0.275524 3.088440 -6.714935 -2.892612 4.713224 -3.293476 -2.156776 -5.030588 -2.578871 -18.795933 6.354159 -3.401765 14.963124 2.523631 -1.290866 7.912378 0.000000 0.000000 0.000000 3.023727 -11.342358 -40.918805 38.651607 -47.247131 17.443571 14.177170 7.183328 -9.480618 0.000000 0.000000 0.000000 -7.125000 0.000000 0.000000 -11.121997 39.514675 -1.525149 0.000000 0.000000 0.000000 -5.011633 19.466043 12.340867 -19.492114 -30.025240 -5.275008 -8.467461 7.161552 11.319887 0.000000 0.000000 0.000000 7.125000 0.000000 0.000000 16.436863 40.852830 1.733997
3.458555 17.526721 4.777212 -354.653554 -86.541255 358.127160 0.000000 0.000000 0.000000 -20.006592 -5.051841 12.391735 2.082166 9.034893 25.904727 179.682148 10.818044 -8.549619 1.182846 -6.902393 -19.426449 0.000000 0.000000 0.000000 14.571534 10.360502 -39.897247 -6.921632 -15.265435 48.577204 -0.059426 -4.733329 5.094857 -0.065858 -1.655868 4.555448 -2.474395 -4.960860 -0.593560 3.158285 -6.640631 -2.991819 4.682835 -3.260601 -2.095826 -5.068663 -2.608148 -18.727383 6.289969 -3.430041 15.104421 2.506094 -1.313583 7.948614 0.000000 0.000000 0.000000 2.868317 -10.592513 -41.222378 37.904054 -46.777771 16.895666 14.069006 7.514152 -9.643438 0.000000 0.000000 0.000000 -7.125000 0.000000 0.000000 -11.247265 39.670266 -1.499370 0.000000 0.000000 0.000000 -4.902889 19.215913 12.495293 -19.665893 -30.237647 -5.362104 -8.723644 7.107829 11.260757 0.000000 0.000000 0.000000 7.125000 0.000000 0.000000 16.202001 40.818334 1.721995
3.319256 17.516170 4.752103 -358.594122 -86.441889 362.148529 0.000000 0.000000 0.000000 -19.338812 -5.044028 11.503121 2.344337 9.540602 27.508333 179.555270 11.997209 -6.938801 1.122278 -6.728170 -18.912993 0.000000 0.000000 0.000000 15.376075 10.054058 -38.236880 -6.579194 -14.963465 47.257738 -0.009543 -3.590491 2.449114 -0.100249 -2.024950 5.575147 -2.273794 -4.875585 -0.854862 3.236282 -6.524771 -3.087645 4.634221 -3.207446 -2.072587 -5.117077 -2.641270 -18.671824 6.232540 -3.462161 15.253870 2.492004 -1.338024 7.990417 0.000000 0.000000 0.000000 2.710520 -9.860961 -41.499507 37.124555 -46.267254 16.331125 13.936452 7.881030 -9.781869 0.000000 0.000000 0.000000 -7.125000 0.000000 0.000000 -11.389235 39.799014 -1.482008 0.000000 0.000000 0.000000 -4.781420 18.924361 12.654358 -19.824958 -30.430636 -5.442571 -8.982876 7.084991 11.241726 0.000000 0.000000 0.000000 7.125000 0.000000 0.000000 15.975490 40.822808 1.694683
3.182921 17.506573 4.727471 -363.067337 -86.358156 366.688923 0.000000 0.000000 0.000000 -18.615111 -5.041562 10.508045 2.642130 10.080607 29.248405 179.442424 13.169018 -5.112948 1.036338 -6.469894 -18.155827 0.000000 0.000000 0.000000 16.216171 9.802207 -36.648713 -6.239481 -14.652607 45.928192 0.012720 -2.690137 0.073782 -0.156708 -2.513435 6.928875 -2.024016 -4.770318 -1.077884 3.321771 -6.383233 -3.178669 4.570247 -3.142098 -2.071962 -5.171894 -2.677321 -18.632578 6.180594 -3.497074 15.408666 2.480468 -1.363350 8.037260 0.000000 0.000000 0.000000 2.552247 -9.146879 -41.757972 36.329185 -45.734054 15.759126 13.826477 8.270283 -9.879125 0.000000 0.000000 0.000000 -7.125000 0.000000 0.000000 -11.503551 39.888017 -1.471933 0.000000 0.000000 0.000000 -4.655285 18.603656 12.822142 -19.976667 -30.614054 -5.519599 -9.248239 7.079045 11.241732 0.000000 0.000000 0.000000 7.125000 0.000000 0.000000 15.748605 40.846285 1.659912
3.049522 17.497916 4.703316 -368.068147 -86.289378 371.743431 0.000000 0.000000 0.000000 -17.836388 -5.044486 9.408306 2.975134 10.654251 31.122824 179.343761 14.332858 -3.076690 0.925514 -6.128572 -17.158046 0.000000 0.000000 0.000000 17.091334 9.604358 -35.131655 -5.902698 -14.333233 44.589685 0.008144 -2.027332 -2.035569 -0.234578 -3.115956 8.601787 -1.725604 -4.645360 -1.263124 3.414642 -6.216395 -3.264856 4.491029 -3.064750 -2.093544 -5.232879 -2.716232 -18.609222 6.134006 -3.534721 15.568374 2.471408 -1.389542 8.088916 0.000000 0.000000 0.000000 2.393559 -8.449959 -41.997907 35.518509 -45.178700 15.180025 13.738184 8.681646 -9.936317 0.000000 0.000000 0.000000 -7.125000 0.000000 0.000000 -11.591203 39.938326 -1.468994 0.000000 0.000000 0.000000 -4.524574 18.254045 12.998639 -20.121087 -30.787998 -5.593215 -9.519671 7.089650 11.260419 0.000000 0.000000 0.000000 7.125000 0.000000 0.000000 15.521299 40.888422 1.617827
2.923312 17.491171 4.680612 -374.319900 -86.215588 378.017888 0.000000 0.000000 0.000000 -16.955453 -5.067391 8.120760 3.385886 11.282297 33.252774 179.300622 15.425479 -0.739929 0.774595 -5.606301 -15.649732 0.000000 0.000000 0.000000 18.038045 9.528965 -33.752022 -5.590578 -14.015837 43.308483 -0.020303 -1.725896 -3.657071 -0.328802 -3.664471 10.136745 -1.317925 -4.482155 -1.369034 3.522021 -5.999967 -3.333371 4.373366 -2.964784 -2.153043 -5.295183 -2.758769 -18.602944 6.094473 -3.576390 15.710277 2.464063 -1.416921 8.138198 0.000000 0.000000 0.000000 2.238301 -7.782646 -42.190495 34.703217 -44.594727 14.606001 13.648902 9.141346 -9.953679 0.000000 0.000000 0.000000 -7.125000 0.000000 0.000000 -11.671470 39.948410 -1.476540 0.000000 0.000000 0.000000 -4.386477 17.833611 13.201778 -20.248032 -30.939851 -5.658390 -9.805347 7.125643 11.309901 0.000000 0.000000 0.000000 7.125000 0.000000 0.000000 15.289246 40.962144 1.564004
2.800919 17.485493 4.658836 -381.118464 -86.117553 384.820242 0.000000 0.000000 0.000000 -16.034144 -5.102677 6.747478 3.842445 11.932320 35.514096 179.290671 16.484947 1.643638 0.618003 -5.006445 -13.931876 0.000000 0.000000 0.000000 19.019113 9.509836 -32.442684 -5.302291 -13.713332 42.106792 -0.052258 -1.531140 -5.079555 -0.421306 -4.154005 11.512062 -0.852400 -4.300688 -1.434707 3.634937 -5.759329 -3.386237 4.231905 -2.854190 -2.223925 -5.355526 -2.802476 -18.613416 6.058792 -3.619126 15.837702 2.457405 -1.443991 8.185692 0.000000 0.000000 0.000000 2.087684 -7.138926 -42.351890 33.890332 -43.998751 14.038340 13.578982 9.625050 -9.941190 0.000000 0.000000 0.000000 -7.125000 0.000000 0.000000 -11.728765 39.930121 -1.489417 0.000000 0.000000 0.000000 -4.247486 17.364720 13.427305 -20.365726 -31.080287 -5.718991 -10.088857 7.181274 11.389235 0.000000 0.000000 0.000000 7.125000 0.000000 0.000000 15.066512 41.065099 1.500896
2.682252 17.480847 4.637966 -388.437362 -85.994938 392.124439 0.000000 0.000000 0.000000 -15.073947 -5.150373 5.291054 4.343852 12.603506 37.903447 179.312808 17.512594 4.068653 0.456412 -4.331818 -12.012366 0.000000 0.000000 0.000000 20.033338 9.545249 -31.201643 -5.037411 -13.425667 40.983604 -0.087494 -1.438546 -6.309378 -0.511919 -4.585924 12.731313 -0.330727 -4.101603 -1.461092 3.753176 -5.495303 -3.423838 4.067277 -2.733348 -2.305846 -5.413750 -2.847256 -18.639911 6.026778 -3.662849 15.950726 2.451356 -1.470736 8.231285 0.000000 0.000000 0.000000 1.941594 -6.518035 -42.482540 33.080039 -43.391248 13.477058 13.528099 10.132190 -9.899824 0.000000 0.000000 0.000000 -7.125000 0.000000 0.000000 -11.763577 39.884411 -1.507408 0.000000 0.000000 0.000000 -4.107728 16.848602 13.674988 -20.474399 -31.209594 -5.775131 -10.369810 7.255809 11.497428 0.000000 0.000000 0.000000 7.125000 0.000000 0.000000 14.853181 41.196279 1.428885
